<svg xmlns="http://www.w3.org/2000/svg" viewBox="0 0 128 128">
  <rect width="128" height="128" rx="28" fill="#ffffff" />
  
  <path d="M64,16 C64,16 26,56 26,82 A38,38 0 0,0 102,82 C102,56 64,16 64,16 Z" fill="#000000" />
  
  <path 
    d="M64,16 C64,40 102,60 64,82 C26,104 64,118 64,118 C86,118 102,102 102,82 C102,56 64,16 64,16 Z" 
    fill="#ffffff" 
  />
  
  <g fill="none" stroke="#000000" stroke-width="3">
    <rect x="70" y="55" width="14" height="14"/>
    <rect x="73.5" y="58.5" width="7" height="7" fill="#000000"/>
    
    <rect x="70" y="80" width="14" height="14"/>
    <rect x="73.5" y="83.5" width="7" height="7" fill="#000000"/>
    
    <rect x="47" y="90" width="14" height="14"/>
    <rect x="50.5" y="93.5" width="7" height="7" fill="#000000"/>
  </g>
</svg>
