<?xml version="1.0" standalone="no"?>
<!DOCTYPE svg PUBLIC "-//W3C//DTD SVG 20010904//EN"
 "http://www.w3.org/TR/2001/REC-SVG-20010904/DTD/svg10.dtd">
<svg version="1.0" xmlns="http://www.w3.org/2000/svg"
 width="156.000000pt" height="168.000000pt" viewBox="0 0 156.000000 168.000000"
 preserveAspectRatio="xMidYMid meet">
<metadata>
Created by potrace 1.16, written by Peter Selinger 2001-2019
</metadata>
<g transform="translate(0.000000,168.000000) scale(0.100000,-0.100000)"
fill="#000000" stroke="none">
<path d="M680 1296 c-195 -55 -320 -219 -320 -419 0 -100 9 -109 52 -55 29 35
36 53 41 104 6 75 41 145 99 200 66 64 119 87 215 92 75 4 87 2 145 -26 58
-28 118 -71 118 -85 0 -4 -107 -8 -237 -9 l-238 -3 -3 -32 -3 -33 188 -1 c103
-1 198 -4 209 -7 19 -6 7 -22 -107 -142 l-128 -135 47 -3 47 -3 173 175 173
176 -30 44 c-91 131 -289 204 -441 162z"/>
<path d="M578 794 c-87 -90 -158 -171 -158 -180 0 -30 115 -133 187 -167 63
-30 75 -32 174 -32 101 0 108 1 181 38 118 58 212 179 234 300 7 40 11 37 -62
41 -10 1 -22 -20 -37 -65 -40 -117 -123 -196 -238 -225 -104 -27 -220 2 -294
72 l-30 29 233 3 232 2 0 40 0 40 -207 2 -206 3 127 133 128 132 -53 -1 -54
-1 -157 -164z"/>
</g>
</svg>
